<!-- Generator: Adobe Illustrator 19.0.0, SVG Export Plug-In . SVG Version: 6.00 Build 0)  -->
<svg version="1.1" xmlns="http://www.w3.org/2000/svg" viewBox="0 0 574 305">
<style type="text/css">
	.st0{fill:none;stroke:#006CB7;stroke-width:4;stroke-miterlimit:10;}
	.st1{fill:none;stroke:#006CB7;stroke-width:7.5;stroke-miterlimit:10;}
	.st2{fill:#006CB7;}
	.st3{fill:#2BB673;}
	.st4{fill:#FFFFFF;}
</style>
<g id="pinpoint">
	<circle id="XMLID_4_" class="st0" cx="411.5" cy="154.5" r="126"/>
	<circle id="XMLID_3_" class="st1" cx="411.5" cy="154.5" r="112.5"/>
	<circle id="XMLID_2_" class="st2" cx="411.5" cy="154.5" r="105.5"/>
</g>
<g id="text">
	<g id="XMLID_1_">
		<path id="XMLID_5_" class="st3" d="M45.2,116.4h19.3v13.2h0.3c4.2-7.8,8.8-15.3,21-15.3c1.3,0,2.6,0.1,3.9,0.3v20.4
			c-1.7-0.3-3.9-0.3-5.8-0.3c-15.7,0-18.6,9.8-18.6,18.3V193H45.2V116.4z"/>
		<path id="XMLID_6_" class="st3" d="M157,178c0,9.1,2,11.1,4.5,12v3h-21.7c-1.2-3.6-1.4-4.8-1.9-9.1c-4.6,4.8-11.1,11.1-24.8,11.1
			c-11.5,0-23.3-6.5-23.3-22.3c0-15,9.5-22.6,22.3-24.5l18.1-2.7c3.2-0.4,7.1-1.7,7.1-6c0-8.5-8.1-8.9-13.2-8.9
			c-10.1,0-11.8,6.2-12.4,10.7H92.2c2.3-23.5,18.6-26.8,34.3-26.8c10.8,0,30.5,3.3,30.5,22.2V178z M137.2,155.7
			c-2,1.6-5.3,2.9-13.7,4.2c-7.5,1.3-13.7,3.2-13.7,11.5c0,7.1,5.5,9.2,9.4,9.2c8.9,0,18-5.8,18-15.1V155.7z"/>
		<path id="XMLID_7_" class="st3" d="M192.1,193h-20.2V89.6h20.2V193z"/>
		<path id="XMLID_8_" class="st3" d="M228.5,193h-20.2V89.6h20.2V193z"/>
		<path id="XMLID_9_" class="st3" d="M284,191.7c-9.5,28.4-12.1,32.1-29.7,32.1c-2.7,0-6.2-0.1-9.1-0.3v-16.1
			c0.9,0.1,2.2,0.3,3.9,0.3c7.3,0,11.4-1,13.2-11.5l-28.2-79.8h22.5l16.4,56.4h0.3l15.7-56.4h21.3L284,191.7z"/>
		<path id="XMLID_10_" class="st4" d="M428.1,193H408v-46.5c0-11.4-5-15.1-10.9-15.1c-10.1,0-13.7,6.6-13.7,15.7V193h-20.2v-46.1
			c0-6.5,0-15.6-12.1-15.6c-9.5,0-12.5,6.6-12.5,15V193h-20.2v-76.6h19.3v11.2h0.3c2.6-5,8.2-13.2,21.7-13.2
			c11.1,0,16.1,4,21.3,12.2c2.6-3.7,8.2-12.2,20.4-12.2c15,0,26.6,8.8,26.6,25.6V193z"/>
		<path id="XMLID_11_" class="st4" d="M508.8,170.5c-5.3,18.4-20.6,24.5-33.7,24.5c-21.6,0-38.2-10.4-38.2-41.9
			c0-9.2,3.2-38.7,36.7-38.7c15.1,0,36,7.2,36,42.2v3.6h-52.6c0.6,5.8,1.7,18.7,18,18.7c5.6,0,11.4-2.9,13-8.4H508.8z M488.9,147.1
			c-1.2-12.4-9.1-16.1-15.6-16.1c-9.5,0-14.5,6-15.7,16.1H488.9z"/>
	</g>
</g>
</svg>
